# xmcd
#
# Track frame offsets:
#	150
#	12790
#	25530
#	38280
#	51900
#	65995
#	79362
#	92372
#	105825
#	117640
#	131382
#	144902
#	158010
#	171297
#	183477
#	196852
#	209852
#	222362
#
# Disc length: 3126 seconds
#
# Revision: 2
# Processed by: cddbd v1.5.2PL0 Copyright (c) Steve Scherf et al.
# Submitted via: EasyCDDAExtractor 2010.6.0.0
#
DISCID=f20c3412
DTITLE=Molly O'Day - And The Cumberland Mountain Folks
DYEAR=1900
DGENRE=Country
TTITLE0=The Tramp On The Street
TTITLE1=When God Comes And Gather His Jewels
TTITLE2=The Black Sheep Returned To The Fold
TTITLE3=Put My Rubber Doll Away
TTITLE4=The Drunken Driver
TTITLE5=The Tear Stained Letter
TTITLE6=Lonley Mound Of Clay
TTITLE7=Six More Miles
TTITLE8=Singing Waterfall
TTITLE9=At The First Fall Of Snow
TTITLE10=Matthew Twenty-Four
TTITLE11=I Don't Care If Tomorrow Never Comes
TTITLE12=A Hero's Death
TTITLE13=I'll Never See Sunshine Again
TTITLE14=Too Late-Too Late
TTITLE15=Why Do You Weep Dear Willow
TTITLE16=Don't Forget The Family Prayer
TTITLE17=I Heard My Mother Weeping
EXTD=
EXTT0=
EXTT1=
EXTT2=
EXTT3=
EXTT4=
EXTT5=
EXTT6=
EXTT7=
EXTT8=
EXTT9=
EXTT10=
EXTT11=
EXTT12=
EXTT13=
EXTT14=
EXTT15=
EXTT16=
EXTT17=
PLAYORDER=
